<svg width="1200" height="1400" viewBox="0 0 1200 1400" fill="none" xmlns="http://www.w3.org/2000/svg">
  <rect width="1200" height="1400" rx="64" fill="#050505"/>
  <rect x="80" y="80" width="1040" height="1240" rx="52" fill="url(#bg)" stroke="rgba(255,255,255,0.08)"/>
  <circle cx="600" cy="520" r="210" fill="url(#orb)"/>
  <circle cx="600" cy="500" r="160" fill="rgba(59,130,246,0.22)"/>
  <path d="M490 800C490 722.32 539.32 660 600 660C660.68 660 710 722.32 710 800V920H490V800Z" fill="rgba(148,163,184,0.14)" stroke="rgba(96,165,250,0.28)" stroke-width="8"/>
  <circle cx="600" cy="525" r="110" fill="rgba(255,255,255,0.06)" stroke="rgba(255,255,255,0.15)" stroke-width="8"/>
  <path d="M520 500C548 458 573 442 600 442C627 442 652 458 680 500" stroke="rgba(255,255,255,0.28)" stroke-width="14" stroke-linecap="round"/>
  <path d="M545 535C564 552 583 560 600 560C617 560 636 552 655 535" stroke="rgba(255,255,255,0.3)" stroke-width="12" stroke-linecap="round"/>
  <rect x="364" y="1030" width="472" height="88" rx="44" fill="rgba(59,130,246,0.16)" stroke="rgba(96,165,250,0.24)"/>
  <text x="600" y="1087" text-anchor="middle" font-family="Arial, Helvetica, sans-serif" font-size="36" font-weight="700" letter-spacing="6" fill="rgba(248,250,252,0.84)">SANKALP</text>
  <defs>
    <radialGradient id="bg" cx="0" cy="0" r="1" gradientUnits="userSpaceOnUse" gradientTransform="translate(600 280) rotate(90) scale(1020 820)">
      <stop stop-color="#0B1020"/>
      <stop offset="0.55" stop-color="#050505"/>
      <stop offset="1" stop-color="#020617"/>
    </radialGradient>
    <radialGradient id="orb" cx="0" cy="0" r="1" gradientUnits="userSpaceOnUse" gradientTransform="translate(600 420) rotate(90) scale(320 320)">
      <stop stop-color="#93C5FD"/>
      <stop offset="0.5" stop-color="#3B82F6"/>
      <stop offset="1" stop-color="#8B5CF6" stop-opacity="0.1"/>
    </radialGradient>
  </defs>
</svg>