<svg width="400" height="480" viewBox="0 0 400 480" fill="none" xmlns="http://www.w3.org/2000/svg">
  <defs>
    <radialGradient id="glow" cx="50%" cy="40%" r="60%">
      <stop offset="0%" stop-color="#60A5FA" stop-opacity="0.9"/>
      <stop offset="45%" stop-color="#3B82F6" stop-opacity="0.55"/>
      <stop offset="100%" stop-color="#050505" stop-opacity="0"/>
    </radialGradient>
    <radialGradient id="head" cx="40%" cy="30%" r="70%">
      <stop offset="0%" stop-color="#E0F2FE"/>
      <stop offset="40%" stop-color="#3B82F6"/>
      <stop offset="100%" stop-color="#1E3A8A"/>
    </radialGradient>
    <linearGradient id="body" x1="200" y1="220" x2="200" y2="420" gradientUnits="userSpaceOnUse">
      <stop stop-color="#7DD3FC" stop-opacity="0.35"/>
      <stop stop-color="#2563EB" stop-opacity="0.15"/>
      <stop stop-color="#050505" stop-opacity="0"/>
    </linearGradient>
    <filter id="blur" x="-50%" y="-50%" width="200%" height="200%">
      <feGaussianBlur stdDeviation="18"/>
    </filter>
  </defs>
  <ellipse cx="200" cy="240" rx="160" ry="180" fill="url(#glow)" filter="url(#blur)" opacity="0.85"/>
  <circle cx="200" cy="168" r="62" fill="url(#head)" stroke="rgba(255,255,255,0.18)" stroke-width="2"/>
  <path d="M148 148C162 118 178 108 200 108C222 108 238 118 252 148" stroke="rgba(255,255,255,0.22)" stroke-width="4" stroke-linecap="round"/>
  <ellipse cx="182" cy="168" rx="6" ry="8" fill="rgba(255,255,255,0.75)"/>
  <ellipse cx="218" cy="168" rx="6" ry="8" fill="rgba(255,255,255,0.75)"/>
  <path d="M176 188C188 198 212 198 224 188" stroke="rgba(125,211,252,0.65)" stroke-width="3" stroke-linecap="round"/>
  <path d="M152 248C152 214 172 196 200 196C228 196 248 214 248 248V360H152V248Z" fill="url(#body)" stroke="rgba(96,165,250,0.28)" stroke-width="2"/>
  <path d="M120 280C104 300 96 328 92 360" stroke="rgba(59,130,246,0.45)" stroke-width="3" stroke-linecap="round"/>
  <path d="M280 280C296 300 304 328 308 360" stroke="rgba(59,130,246,0.45)" stroke-width="3" stroke-linecap="round"/>
  <circle cx="200" cy="120" r="4" fill="#93C5FD" opacity="0.9"/>
  <circle cx="248" cy="200" r="3" fill="#60A5FA" opacity="0.7"/>
  <circle cx="152" cy="210" r="2.5" fill="#818CF8" opacity="0.6"/>
</svg>
